<?xml version="1.0" encoding="UTF-8" standalone="no"?>
<svg
   version="1.1"
   id="Layer_1"
   x="0px"
   y="0px"
   width="631591.62"
   viewBox="0 0 631591.62 551998.75"
   enable-background="new 0 0 896 784"
   xml:space="preserve"
   height="551998.75"
   xmlns="http://www.w3.org/2000/svg"
   xmlns:svg="http://www.w3.org/2000/svg"><defs
   id="defs54" />

<ellipse
   style="fill:#ffffff;stroke-width:4.40216;paint-order:stroke fill markers;stop-color:#000000"
   id="path389"
   ry="352.04004"
   rx="352.45068"
   cy="-55905.059"
   cx="-100591.49" /><path
   fill="#000000"
   opacity="1"
   stroke="none"
   d="m -100333.35,-55776.761 c -38.66,75.125 -97.93,125.145 -178.56,149.462 -18.32,5.526 -37.16,8.475 -56.31,9.88 -72.04,5.288 -137.27,-13.306 -194.96,-56.544 -57.58,-43.148 -93.94,-100.506 -109.63,-170.71 -5.28,-23.59 -7.51,-47.685 -6.12,-71.829 2.56,-44.614 14.18,-86.863 35.79,-126.118 27.63,-50.182 66.54,-89.239 116.84,-116.699 29.47,-16.092 60.94,-26.383 94.25,-31.155 18.86,-2.701 37.8,-3.765 56.72,-2.677 52.25,3.005 100.59,18.491 143.99,48.012 59.86,40.707 99.22,96.221 118.19,166.076 5.36,19.767 7.77,39.97 9,60.46 2.99,49.869 -7.4,96.791 -29.2,141.842 m -43.88,-105.821 c -9.33,-0 -18.66,-0.174 -27.99,0.06 -4.3,0.109 -5.95,-1.288 -5.86,-5.705 0.22,-10.661 0.25,-21.335 -0.1,-31.993 -0.13,-4.712 1.69,-6.028 6.13,-5.983 17.33,0.172 34.66,0.09 52,0.06 6.61,-0.01 7.74,-1.219 6.79,-7.626 -3.8,-25.493 -10.73,-50.069 -21.93,-73.345 -21.97,-45.654 -54.42,-81.853 -97.84,-108.102 -28.9,-17.471 -60.11,-28.279 -93.62,-32.507 -8.78,-1.107 -8.76,-1.283 -8.76,7.342 -0,17.332 -0.1,34.664 0.1,51.995 0,3.579 -0.92,5.052 -4.78,4.975 -11.16,-0.223 -22.33,-0.229 -33.49,-0.03 -4.18,0.07 -5.79,-1.537 -5.42,-5.565 0.13,-1.321 0,-2.665 0,-3.998 0,-16.332 0,-32.664 -0,-48.996 -0,-5.839 -0.76,-6.5 -6.35,-5.742 -4.61,0.625 -9.23,1.242 -13.79,2.146 -62.76,12.425 -113.82,44.011 -152.95,94.478 -26.79,34.543 -42.97,73.712 -48.45,117.197 -0.93,7.369 -0.79,7.705 6.59,7.712 17.33,0.02 34.66,0.129 51.99,-0.07 4.42,-0.05 5.79,1.444 5.69,5.78 -0.25,10.493 -0.32,21.005 0,31.492 0.17,5.011 -1.32,6.63 -6.44,6.544 -17.16,-0.29 -34.33,-0.06 -51.49,-0.141 -4.55,-0.02 -6.8,1.451 -6.29,6.492 0.82,7.958 2.21,15.816 4.17,23.525 22.05,86.587 73.76,147.324 157.48,179.908 16.34,6.358 33.44,9.973 50.8,12.261 8.16,1.076 9.02,0.203 9.02,-7.86 0,-17.165 0.1,-34.331 -0.1,-51.495 -0,-4.081 1.42,-5.623 5.54,-5.559 10.83,0.167 21.67,0.167 32.5,-0.07 4.35,-0.1 5.78,1.386 5.73,5.78 -0.21,17.496 -0.1,34.997 -0.1,52.495 0,6.488 1.3,7.574 7.76,6.642 27.73,-4.001 54.25,-11.956 79.17,-24.84 61.68,-31.879 104.01,-80.478 125.91,-146.518 4.82,-14.533 8.27,-29.432 9.54,-44.769 0.37,-4.4 -1.53,-6.046 -5.76,-5.989 -8.16,0.111 -16.33,0.03 -25.5,0.02 z"
   id="path47" />
<path
   fill="#000000"
   opacity="1"
   stroke="none"
   d="m -100488.55,-55889.91 c 11.72,40.59 23.34,80.789 34.91,120.861 -2.21,1.428 -3.79,0.487 -5.3,0.05 -67.24,-19.45 -134.46,-38.965 -201.73,-58.331 -3.55,-1.02 -5.2,-2.84 -6.18,-6.213 -16.79,-58.318 -33.65,-116.614 -50.52,-174.91 -2.54,-8.79 -5.19,-17.551 -7.77,-26.328 -0.47,-1.573 -1.34,-3.094 -0.69,-4.888 1.34,-1.145 2.77,-0.519 4.19,-0.106 46.96,13.641 93.91,27.292 140.87,40.922 20.28,5.887 40.56,11.811 60.88,17.528 3.76,1.055 5.74,2.757 6.86,6.709 7.95,28.152 16.21,56.221 24.48,84.706 m -135.37,-77.162 c -10.71,-2.993 -21.42,-6.038 -32.16,-8.96 -5.26,-1.431 -6.93,0.256 -5.66,5.453 0.2,0.807 0.37,1.624 0.6,2.421 7.31,25.029 14.6,50.064 21.99,75.071 0.54,1.803 0.57,4.053 3.71,5.615 20.68,-21.15 41.58,-42.522 62.48,-63.895 -0.17,-0.585 -0.34,-1.17 -0.52,-1.755 -16.55,-4.568 -33.11,-9.136 -50.44,-13.95 m 90.3,74.323 c -1.85,-6.73 -3.68,-13.467 -5.56,-20.189 -1.91,-6.796 -3.35,-7.199 -8.39,-2.269 -18.59,18.163 -37.16,36.344 -55.7,54.549 -1.26,1.233 -2.99,2.213 -3.09,4.281 0.83,1.893 2.64,1.921 4.2,2.353 26.44,7.308 52.87,14.628 79.33,21.894 5.26,1.445 6.32,0.279 4.82,-5.098 -5.09,-18.256 -10.22,-36.502 -15.61,-55.521 z"
   id="path49" />
</svg>
